<svg xmlns="http://www.w3.org/2000/svg" xmlns:xlink="http://www.w3.org/1999/xlink" version="1.1" id="Capa_1" x="0px" y="0px" width="512px" height="512px" viewBox="0 0 94.27 94.27" style="enable-background:new 0 0 94.27 94.27;" xml:space="preserve">
<g>
	<g>
		<path d="M47.135,0C21.145,0,0,21.145,0,47.135S21.145,94.27,47.135,94.27S94.27,73.125,94.27,47.135S73.125,0,47.135,0z     M47.135,86.982c-21.973,0-39.85-17.875-39.85-39.848c0-21.973,17.877-39.85,39.85-39.85c21.973,0,39.85,17.877,39.85,39.85    C86.984,69.107,69.107,86.982,47.135,86.982z" fill="#FFFFFF"/>
		<circle cx="25.994" cy="42.906" r="8.457" fill="#FFFFFF"/>
		<circle cx="55.916" cy="27.946" r="8.457" fill="#FFFFFF"/>
		<path d="M76.609,45.338c-2.428-0.65-4.926,0.791-5.576,3.221c-2.635,9.834-7.428,16.348-14.241,19.359    c-6.209,2.744-14.313,2.807-24.09,0.188c-2.43-0.652-4.926,0.791-5.576,3.221c-0.65,2.429,0.791,4.927,3.219,5.576    c5.535,1.482,10.699,2.226,15.463,2.226c5.423,0,10.324-0.961,14.666-2.882c9.461-4.18,15.974-12.702,19.356-25.331    C80.48,48.486,79.039,45.99,76.609,45.338z" fill="#FFFFFF"/>
	</g>
</g>
<g>
</g>
<g>
</g>
<g>
</g>
<g>
</g>
<g>
</g>
<g>
</g>
<g>
</g>
<g>
</g>
<g>
</g>
<g>
</g>
<g>
</g>
<g>
</g>
<g>
</g>
<g>
</g>
<g>
</g>
</svg>
